<mxfile host="app.diagrams.net" modified="2023-09-08T10:26:23.828Z" agent="Mozilla/5.0 (Windows NT 10.0; Win64; x64) AppleWebKit/537.36 (KHTML, like Gecko) Chrome/116.0.0.0 Safari/537.36" etag="NUlNuBas_MEreFDV6-9f" version="21.7.2" type="device">
  <diagram name="1 oldal" id="7WF8GKdl5s7i6dW5tGuo">
    <mxGraphModel dx="851" dy="377" grid="1" gridSize="10" guides="1" tooltips="1" connect="1" arrows="1" fold="1" page="1" pageScale="1" pageWidth="827" pageHeight="1169" math="0" shadow="0">
      <root>
        <mxCell id="0" />
        <mxCell id="1" parent="0" />
        <mxCell id="Ir8yGI0CGF4Tz35kaByy-16" style="edgeStyle=orthogonalEdgeStyle;rounded=0;orthogonalLoop=1;jettySize=auto;html=1;exitX=1;exitY=0.5;exitDx=0;exitDy=0;entryX=0;entryY=0.5;entryDx=0;entryDy=0;" edge="1" parent="1" source="Ir8yGI0CGF4Tz35kaByy-1" target="Ir8yGI0CGF4Tz35kaByy-15">
          <mxGeometry relative="1" as="geometry" />
        </mxCell>
        <mxCell id="Ir8yGI0CGF4Tz35kaByy-1" value="&lt;font style=&quot;font-size: 24px;&quot;&gt;Start&lt;/font&gt;" style="ellipse;whiteSpace=wrap;html=1;" vertex="1" parent="1">
          <mxGeometry x="100" y="120" width="120" height="80" as="geometry" />
        </mxCell>
        <mxCell id="Ir8yGI0CGF4Tz35kaByy-20" style="edgeStyle=orthogonalEdgeStyle;rounded=0;orthogonalLoop=1;jettySize=auto;html=1;exitX=1;exitY=0.5;exitDx=0;exitDy=0;entryX=0;entryY=0.5;entryDx=0;entryDy=0;" edge="1" parent="1" source="Ir8yGI0CGF4Tz35kaByy-3" target="Ir8yGI0CGF4Tz35kaByy-8">
          <mxGeometry relative="1" as="geometry" />
        </mxCell>
        <mxCell id="Ir8yGI0CGF4Tz35kaByy-23" style="edgeStyle=orthogonalEdgeStyle;rounded=0;orthogonalLoop=1;jettySize=auto;html=1;exitX=0.5;exitY=1;exitDx=0;exitDy=0;entryX=0.5;entryY=0;entryDx=0;entryDy=0;" edge="1" parent="1" source="Ir8yGI0CGF4Tz35kaByy-3" target="Ir8yGI0CGF4Tz35kaByy-11">
          <mxGeometry relative="1" as="geometry" />
        </mxCell>
        <mxCell id="Ir8yGI0CGF4Tz35kaByy-3" value="&lt;font style=&quot;font-size: 24px;&quot;&gt;i&amp;lt;=a&lt;/font&gt;" style="rhombus;whiteSpace=wrap;html=1;" vertex="1" parent="1">
          <mxGeometry x="275" y="330" width="80" height="80" as="geometry" />
        </mxCell>
        <mxCell id="Ir8yGI0CGF4Tz35kaByy-19" style="edgeStyle=orthogonalEdgeStyle;rounded=0;orthogonalLoop=1;jettySize=auto;html=1;exitX=0.5;exitY=1;exitDx=0;exitDy=0;entryX=0.5;entryY=0;entryDx=0;entryDy=0;" edge="1" parent="1" source="Ir8yGI0CGF4Tz35kaByy-4" target="Ir8yGI0CGF4Tz35kaByy-3">
          <mxGeometry relative="1" as="geometry" />
        </mxCell>
        <mxCell id="Ir8yGI0CGF4Tz35kaByy-4" value="&lt;font style=&quot;font-size: 24px;&quot;&gt;Be: a,b&lt;/font&gt;" style="shape=parallelogram;perimeter=parallelogramPerimeter;whiteSpace=wrap;html=1;fixedSize=1;" vertex="1" parent="1">
          <mxGeometry x="240" y="240" width="150" height="60" as="geometry" />
        </mxCell>
        <mxCell id="Ir8yGI0CGF4Tz35kaByy-25" style="edgeStyle=orthogonalEdgeStyle;rounded=0;orthogonalLoop=1;jettySize=auto;html=1;exitX=1;exitY=0.5;exitDx=0;exitDy=0;entryX=0;entryY=0.5;entryDx=0;entryDy=0;" edge="1" parent="1" source="Ir8yGI0CGF4Tz35kaByy-8" target="Ir8yGI0CGF4Tz35kaByy-9">
          <mxGeometry relative="1" as="geometry" />
        </mxCell>
        <mxCell id="Ir8yGI0CGF4Tz35kaByy-8" value="&lt;font style=&quot;font-size: 24px;&quot;&gt;osszeg = osszeg + b&lt;/font&gt;" style="rounded=0;whiteSpace=wrap;html=1;" vertex="1" parent="1">
          <mxGeometry x="400" y="340" width="240" height="60" as="geometry" />
        </mxCell>
        <mxCell id="Ir8yGI0CGF4Tz35kaByy-26" style="edgeStyle=orthogonalEdgeStyle;rounded=0;orthogonalLoop=1;jettySize=auto;html=1;exitX=0.5;exitY=0;exitDx=0;exitDy=0;entryX=0.5;entryY=0;entryDx=0;entryDy=0;" edge="1" parent="1" source="Ir8yGI0CGF4Tz35kaByy-9" target="Ir8yGI0CGF4Tz35kaByy-3">
          <mxGeometry relative="1" as="geometry" />
        </mxCell>
        <mxCell id="Ir8yGI0CGF4Tz35kaByy-9" value="&lt;font style=&quot;font-size: 24px;&quot;&gt;i = i + 1&lt;/font&gt;" style="rounded=0;whiteSpace=wrap;html=1;" vertex="1" parent="1">
          <mxGeometry x="690" y="340" width="120" height="60" as="geometry" />
        </mxCell>
        <mxCell id="Ir8yGI0CGF4Tz35kaByy-24" style="edgeStyle=orthogonalEdgeStyle;rounded=0;orthogonalLoop=1;jettySize=auto;html=1;exitX=1;exitY=0.5;exitDx=0;exitDy=0;entryX=0;entryY=0.5;entryDx=0;entryDy=0;" edge="1" parent="1" source="Ir8yGI0CGF4Tz35kaByy-11" target="Ir8yGI0CGF4Tz35kaByy-12">
          <mxGeometry relative="1" as="geometry" />
        </mxCell>
        <mxCell id="Ir8yGI0CGF4Tz35kaByy-11" value="&lt;font style=&quot;font-size: 24px;&quot;&gt;Ki: osszeg&lt;/font&gt;" style="shape=parallelogram;perimeter=parallelogramPerimeter;whiteSpace=wrap;html=1;fixedSize=1;" vertex="1" parent="1">
          <mxGeometry x="230" y="440" width="170" height="60" as="geometry" />
        </mxCell>
        <mxCell id="Ir8yGI0CGF4Tz35kaByy-12" value="&lt;font style=&quot;font-size: 24px;&quot;&gt;End&lt;/font&gt;" style="ellipse;whiteSpace=wrap;html=1;" vertex="1" parent="1">
          <mxGeometry x="450" y="430" width="120" height="80" as="geometry" />
        </mxCell>
        <mxCell id="Ir8yGI0CGF4Tz35kaByy-18" style="edgeStyle=orthogonalEdgeStyle;rounded=0;orthogonalLoop=1;jettySize=auto;html=1;exitX=0.5;exitY=1;exitDx=0;exitDy=0;entryX=0.5;entryY=0;entryDx=0;entryDy=0;" edge="1" parent="1" source="Ir8yGI0CGF4Tz35kaByy-13" target="Ir8yGI0CGF4Tz35kaByy-4">
          <mxGeometry relative="1" as="geometry" />
        </mxCell>
        <mxCell id="Ir8yGI0CGF4Tz35kaByy-13" value="&lt;font style=&quot;font-size: 24px;&quot;&gt;osszeg = 0&lt;/font&gt;" style="rounded=0;whiteSpace=wrap;html=1;" vertex="1" parent="1">
          <mxGeometry x="430" y="130" width="170" height="60" as="geometry" />
        </mxCell>
        <mxCell id="Ir8yGI0CGF4Tz35kaByy-17" style="edgeStyle=orthogonalEdgeStyle;rounded=0;orthogonalLoop=1;jettySize=auto;html=1;exitX=1;exitY=0.5;exitDx=0;exitDy=0;entryX=0;entryY=0.5;entryDx=0;entryDy=0;" edge="1" parent="1" source="Ir8yGI0CGF4Tz35kaByy-15" target="Ir8yGI0CGF4Tz35kaByy-13">
          <mxGeometry relative="1" as="geometry" />
        </mxCell>
        <mxCell id="Ir8yGI0CGF4Tz35kaByy-15" value="&lt;font style=&quot;font-size: 24px;&quot;&gt;i = 1&lt;/font&gt;" style="rounded=0;whiteSpace=wrap;html=1;" vertex="1" parent="1">
          <mxGeometry x="265" y="130" width="120" height="60" as="geometry" />
        </mxCell>
      </root>
    </mxGraphModel>
  </diagram>
</mxfile>
